<?xml version="1.0" encoding="UTF-8" standalone="no"?>
<!DOCTYPE svg PUBLIC "-//W3C//DTD SVG 1.1//EN"
 "http://www.w3.org/Graphics/SVG/1.1/DTD/svg11.dtd">
<!-- Generated by graphviz version 2.43.0 (0)
 -->
<!-- Title: snakemake_dag Pages: 1 -->
<svg width="84pt" height="116pt"
 viewBox="0.00 0.00 84.00 116.00" xmlns="http://www.w3.org/2000/svg" xmlns:xlink="http://www.w3.org/1999/xlink">
<g id="graph0" class="graph" transform="scale(1 1) rotate(0) translate(4 112)">
<title>snakemake_dag</title>
<polygon fill="white" stroke="transparent" points="-4,4 -4,-112 80,-112 80,4 -4,4"/>
<!-- 0 -->
<g id="node1" class="node">
<title>0</title>
<path fill="none" stroke="#56d87b" stroke-width="2" d="M64,-36C64,-36 12,-36 12,-36 6,-36 0,-30 0,-24 0,-24 0,-12 0,-12 0,-6 6,0 12,0 12,0 64,0 64,0 70,0 76,-6 76,-12 76,-12 76,-24 76,-24 76,-30 70,-36 64,-36"/>
<text text-anchor="middle" x="38" y="-21" font-family="sans" font-size="10.00">map_csv</text>
<text text-anchor="middle" x="38" y="-10" font-family="sans" font-size="10.00">nummer: 04</text>
</g>
<!-- 1 -->
<g id="node2" class="node">
<title>1</title>
<path fill="none" stroke="#c6d856" stroke-width="2" d="M60.5,-108C60.5,-108 15.5,-108 15.5,-108 9.5,-108 3.5,-102 3.5,-96 3.5,-96 3.5,-84 3.5,-84 3.5,-78 9.5,-72 15.5,-72 15.5,-72 60.5,-72 60.5,-72 66.5,-72 72.5,-78 72.5,-84 72.5,-84 72.5,-96 72.5,-96 72.5,-102 66.5,-108 60.5,-108"/>
<text text-anchor="middle" x="38" y="-87.5" font-family="sans" font-size="10.00">pdf_to_csv</text>
</g>
<!-- 1&#45;&gt;0 -->
<g id="edge1" class="edge">
<title>1&#45;&gt;0</title>
<path fill="none" stroke="grey" stroke-width="2" d="M38,-71.7C38,-63.98 38,-54.71 38,-46.11"/>
<polygon fill="grey" stroke="grey" stroke-width="2" points="41.5,-46.1 38,-36.1 34.5,-46.1 41.5,-46.1"/>
</g>
</g>
</svg>
